<mxfile host="app.diagrams.net" agent="Mozilla/5.0 (Windows NT 10.0; Win64; x64) AppleWebKit/537.36 (KHTML, like Gecko) Chrome/128.0.0.0 Safari/537.36" version="24.7.14">
  <diagram name="Página-1" id="4KyvbtJ9Kk89v_dzpNg4">
    <mxGraphModel dx="724" dy="1624" grid="1" gridSize="10" guides="1" tooltips="1" connect="1" arrows="1" fold="1" page="1" pageScale="1" pageWidth="827" pageHeight="1169" math="0" shadow="0">
      <root>
        <mxCell id="0" />
        <mxCell id="1" parent="0" />
        <mxCell id="tBD7vMvpTvzzFeklytoe-13" value="ALUNO" style="whiteSpace=wrap;html=1;align=center;" vertex="1" parent="1">
          <mxGeometry x="320" y="140" width="100" height="40" as="geometry" />
        </mxCell>
        <mxCell id="tBD7vMvpTvzzFeklytoe-14" value="&lt;u&gt;NumMec&lt;/u&gt;" style="ellipse;whiteSpace=wrap;html=1;align=center;" vertex="1" parent="1">
          <mxGeometry x="130" y="80" width="100" height="40" as="geometry" />
        </mxCell>
        <mxCell id="tBD7vMvpTvzzFeklytoe-15" value="Nome" style="ellipse;whiteSpace=wrap;html=1;align=center;" vertex="1" parent="1">
          <mxGeometry x="130" y="170" width="100" height="40" as="geometry" />
        </mxCell>
        <mxCell id="tBD7vMvpTvzzFeklytoe-16" value="Sexo&lt;span style=&quot;color: rgba(0, 0, 0, 0); font-family: monospace; font-size: 0px; text-align: start; text-wrap: nowrap;&quot;&gt;%3CmxGraphModel%3E%3Croot%3E%3CmxCell%20id%3D%220%22%2F%3E%3CmxCell%20id%3D%221%22%20parent%3D%220%22%2F%3E%3CmxCell%20id%3D%222%22%20value%3D%22Nome%22%20style%3D%22ellipse%3BwhiteSpace%3Dwrap%3Bhtml%3D1%3Balign%3Dcenter%3B%22%20vertex%3D%221%22%20parent%3D%221%22%3E%3CmxGeometry%20x%3D%22294%22%20y%3D%22490%22%20width%3D%22100%22%20height%3D%2240%22%20as%3D%22geometry%22%2F%3E%3C%2FmxCell%3E%3C%2Froot%3E%3C%2FmxGraphModel%3E&lt;/span&gt;" style="ellipse;whiteSpace=wrap;html=1;align=center;" vertex="1" parent="1">
          <mxGeometry x="170" y="220" width="100" height="40" as="geometry" />
        </mxCell>
        <mxCell id="tBD7vMvpTvzzFeklytoe-17" value="DataNasc" style="ellipse;whiteSpace=wrap;html=1;align=center;" vertex="1" parent="1">
          <mxGeometry x="300" y="240" width="100" height="40" as="geometry" />
        </mxCell>
        <mxCell id="tBD7vMvpTvzzFeklytoe-18" value="" style="endArrow=none;html=1;rounded=0;" edge="1" parent="1" source="tBD7vMvpTvzzFeklytoe-13" target="tBD7vMvpTvzzFeklytoe-14">
          <mxGeometry relative="1" as="geometry">
            <mxPoint x="310" y="150" as="sourcePoint" />
            <mxPoint x="470" y="150" as="targetPoint" />
          </mxGeometry>
        </mxCell>
        <mxCell id="tBD7vMvpTvzzFeklytoe-19" value="" style="endArrow=none;html=1;rounded=0;" edge="1" parent="1" source="tBD7vMvpTvzzFeklytoe-13" target="tBD7vMvpTvzzFeklytoe-15">
          <mxGeometry relative="1" as="geometry">
            <mxPoint x="350" y="160" as="sourcePoint" />
            <mxPoint x="234" y="235" as="targetPoint" />
          </mxGeometry>
        </mxCell>
        <mxCell id="tBD7vMvpTvzzFeklytoe-20" value="" style="endArrow=none;html=1;rounded=0;" edge="1" parent="1" source="tBD7vMvpTvzzFeklytoe-13" target="tBD7vMvpTvzzFeklytoe-16">
          <mxGeometry relative="1" as="geometry">
            <mxPoint x="361" y="180" as="sourcePoint" />
            <mxPoint x="334" y="260" as="targetPoint" />
          </mxGeometry>
        </mxCell>
        <mxCell id="tBD7vMvpTvzzFeklytoe-21" value="" style="endArrow=none;html=1;rounded=0;" edge="1" parent="1" source="tBD7vMvpTvzzFeklytoe-13" target="tBD7vMvpTvzzFeklytoe-17">
          <mxGeometry relative="1" as="geometry">
            <mxPoint x="400" y="170" as="sourcePoint" />
            <mxPoint x="504.75228679747624" y="225.81494468678932" as="targetPoint" />
          </mxGeometry>
        </mxCell>
        <mxCell id="tBD7vMvpTvzzFeklytoe-23" value="Idade" style="ellipse;whiteSpace=wrap;html=1;align=center;dashed=1;" vertex="1" parent="1">
          <mxGeometry x="414" y="240" width="100" height="40" as="geometry" />
        </mxCell>
        <mxCell id="tBD7vMvpTvzzFeklytoe-25" value="" style="endArrow=none;html=1;rounded=0;dashed=1;" edge="1" parent="1" source="tBD7vMvpTvzzFeklytoe-13" target="tBD7vMvpTvzzFeklytoe-23">
          <mxGeometry relative="1" as="geometry">
            <mxPoint x="410" y="180" as="sourcePoint" />
            <mxPoint x="412" y="265" as="targetPoint" />
          </mxGeometry>
        </mxCell>
        <mxCell id="tBD7vMvpTvzzFeklytoe-26" value="NumTelef" style="ellipse;shape=doubleEllipse;margin=3;whiteSpace=wrap;html=1;align=center;" vertex="1" parent="1">
          <mxGeometry x="340" y="30" width="100" height="40" as="geometry" />
        </mxCell>
        <mxCell id="tBD7vMvpTvzzFeklytoe-28" value="" style="endArrow=none;html=1;rounded=0;" edge="1" parent="1" source="tBD7vMvpTvzzFeklytoe-13" target="tBD7vMvpTvzzFeklytoe-26">
          <mxGeometry relative="1" as="geometry">
            <mxPoint x="400" y="120" as="sourcePoint" />
            <mxPoint x="412" y="265" as="targetPoint" />
          </mxGeometry>
        </mxCell>
        <mxCell id="tBD7vMvpTvzzFeklytoe-29" value="Habilitação&lt;span style=&quot;color: rgba(0, 0, 0, 0); font-family: monospace; font-size: 0px; text-align: start; text-wrap: nowrap;&quot;&gt;%3CmxGraphModel%3E%3Croot%3E%3CmxCell%20id%3D%220%22%2F%3E%3CmxCell%20id%3D%221%22%20parent%3D%220%22%2F%3E%3CmxCell%20id%3D%222%22%20value%3D%22%22%20style%3D%22endArrow%3Dnone%3Bhtml%3D1%3Brounded%3D0%3BexitX%3D1%3BexitY%3D0.75%3BexitDx%3D0%3BexitDy%3D0%3BentryX%3D0.315%3BentryY%3D0.117%3BentryDx%3D0%3BentryDy%3D0%3BentryPerimeter%3D0%3B%22%20edge%3D%221%22%20parent%3D%221%22%3E%3CmxGeometry%20relative%3D%221%22%20as%3D%22geometry%22%3E%3CmxPoint%20x%3D%22400%22%20y%3D%22170%22%20as%3D%22sourcePoint%22%2F%3E%3CmxPoint%20x%3D%22402%22%20y%3D%22255%22%20as%3D%22targetPoint%22%2F%3E%3C%2FmxGeometry%3E%3C%2FmxCell%3E%3C%2Froot%3E%3C%2FmxGraphModel%3E&lt;/span&gt;" style="ellipse;shape=doubleEllipse;margin=3;whiteSpace=wrap;html=1;align=center;" vertex="1" parent="1">
          <mxGeometry x="460" y="60" width="100" height="40" as="geometry" />
        </mxCell>
        <mxCell id="tBD7vMvpTvzzFeklytoe-30" value="" style="endArrow=none;html=1;rounded=0;" edge="1" parent="1" source="tBD7vMvpTvzzFeklytoe-13" target="tBD7vMvpTvzzFeklytoe-29">
          <mxGeometry relative="1" as="geometry">
            <mxPoint x="420" y="190" as="sourcePoint" />
            <mxPoint x="422" y="275" as="targetPoint" />
          </mxGeometry>
        </mxCell>
        <mxCell id="tBD7vMvpTvzzFeklytoe-31" value="Grau" style="ellipse;whiteSpace=wrap;html=1;align=center;" vertex="1" parent="1">
          <mxGeometry x="440" y="-10" width="80" height="40" as="geometry" />
        </mxCell>
        <mxCell id="tBD7vMvpTvzzFeklytoe-32" value="Instituição" style="ellipse;whiteSpace=wrap;html=1;align=center;" vertex="1" parent="1">
          <mxGeometry x="610" y="50" width="80" height="40" as="geometry" />
        </mxCell>
        <mxCell id="tBD7vMvpTvzzFeklytoe-33" value="Ano" style="ellipse;whiteSpace=wrap;html=1;align=center;" vertex="1" parent="1">
          <mxGeometry x="550" width="80" height="40" as="geometry" />
        </mxCell>
        <mxCell id="tBD7vMvpTvzzFeklytoe-34" value="" style="endArrow=none;html=1;rounded=0;entryX=0.5;entryY=1;entryDx=0;entryDy=0;" edge="1" parent="1" source="tBD7vMvpTvzzFeklytoe-29" target="tBD7vMvpTvzzFeklytoe-31">
          <mxGeometry relative="1" as="geometry">
            <mxPoint x="438" y="141" as="sourcePoint" />
            <mxPoint x="502" y="108" as="targetPoint" />
          </mxGeometry>
        </mxCell>
        <mxCell id="tBD7vMvpTvzzFeklytoe-35" value="" style="endArrow=none;html=1;rounded=0;" edge="1" parent="1" source="tBD7vMvpTvzzFeklytoe-29" target="tBD7vMvpTvzzFeklytoe-33">
          <mxGeometry relative="1" as="geometry">
            <mxPoint x="448" y="151" as="sourcePoint" />
            <mxPoint x="512" y="118" as="targetPoint" />
          </mxGeometry>
        </mxCell>
        <mxCell id="tBD7vMvpTvzzFeklytoe-36" value="" style="endArrow=none;html=1;rounded=0;" edge="1" parent="1" source="tBD7vMvpTvzzFeklytoe-32" target="tBD7vMvpTvzzFeklytoe-29">
          <mxGeometry relative="1" as="geometry">
            <mxPoint x="458" y="161" as="sourcePoint" />
            <mxPoint x="522" y="128" as="targetPoint" />
          </mxGeometry>
        </mxCell>
        <mxCell id="tBD7vMvpTvzzFeklytoe-38" value="Morada" style="ellipse;whiteSpace=wrap;html=1;align=center;" vertex="1" parent="1">
          <mxGeometry x="490" y="140" width="100" height="40" as="geometry" />
        </mxCell>
        <mxCell id="tBD7vMvpTvzzFeklytoe-39" value="Rua" style="ellipse;whiteSpace=wrap;html=1;align=center;" vertex="1" parent="1">
          <mxGeometry x="580" y="100" width="80" height="40" as="geometry" />
        </mxCell>
        <mxCell id="tBD7vMvpTvzzFeklytoe-40" value="Num" style="ellipse;whiteSpace=wrap;html=1;align=center;" vertex="1" parent="1">
          <mxGeometry x="620" y="140" width="80" height="40" as="geometry" />
        </mxCell>
        <mxCell id="tBD7vMvpTvzzFeklytoe-41" value="Andar?" style="ellipse;whiteSpace=wrap;html=1;align=center;" vertex="1" parent="1">
          <mxGeometry x="600" y="190" width="80" height="40" as="geometry" />
        </mxCell>
        <mxCell id="tBD7vMvpTvzzFeklytoe-42" value="Localidade" style="ellipse;whiteSpace=wrap;html=1;align=center;" vertex="1" parent="1">
          <mxGeometry x="560" y="230" width="80" height="40" as="geometry" />
        </mxCell>
        <mxCell id="tBD7vMvpTvzzFeklytoe-44" value="CodPostal" style="ellipse;whiteSpace=wrap;html=1;align=center;" vertex="1" parent="1">
          <mxGeometry x="480" y="200" width="80" height="40" as="geometry" />
        </mxCell>
        <mxCell id="tBD7vMvpTvzzFeklytoe-45" value="" style="endArrow=none;html=1;rounded=0;" edge="1" parent="1" source="tBD7vMvpTvzzFeklytoe-38" target="tBD7vMvpTvzzFeklytoe-39">
          <mxGeometry relative="1" as="geometry">
            <mxPoint x="544" y="72" as="sourcePoint" />
            <mxPoint x="578" y="47" as="targetPoint" />
          </mxGeometry>
        </mxCell>
        <mxCell id="tBD7vMvpTvzzFeklytoe-46" value="" style="endArrow=none;html=1;rounded=0;" edge="1" parent="1" source="tBD7vMvpTvzzFeklytoe-38" target="tBD7vMvpTvzzFeklytoe-40">
          <mxGeometry relative="1" as="geometry">
            <mxPoint x="581" y="154" as="sourcePoint" />
            <mxPoint x="602" y="144" as="targetPoint" />
          </mxGeometry>
        </mxCell>
        <mxCell id="tBD7vMvpTvzzFeklytoe-47" value="" style="endArrow=none;html=1;rounded=0;" edge="1" parent="1" source="tBD7vMvpTvzzFeklytoe-38" target="tBD7vMvpTvzzFeklytoe-41">
          <mxGeometry relative="1" as="geometry">
            <mxPoint x="591" y="164" as="sourcePoint" />
            <mxPoint x="612" y="154" as="targetPoint" />
          </mxGeometry>
        </mxCell>
        <mxCell id="tBD7vMvpTvzzFeklytoe-48" value="" style="endArrow=none;html=1;rounded=0;" edge="1" parent="1" source="tBD7vMvpTvzzFeklytoe-38" target="tBD7vMvpTvzzFeklytoe-42">
          <mxGeometry relative="1" as="geometry">
            <mxPoint x="601" y="174" as="sourcePoint" />
            <mxPoint x="622" y="164" as="targetPoint" />
          </mxGeometry>
        </mxCell>
        <mxCell id="tBD7vMvpTvzzFeklytoe-49" value="" style="endArrow=none;html=1;rounded=0;" edge="1" parent="1" source="tBD7vMvpTvzzFeklytoe-38" target="tBD7vMvpTvzzFeklytoe-44">
          <mxGeometry relative="1" as="geometry">
            <mxPoint x="611" y="184" as="sourcePoint" />
            <mxPoint x="632" y="174" as="targetPoint" />
          </mxGeometry>
        </mxCell>
        <mxCell id="tBD7vMvpTvzzFeklytoe-50" value="" style="endArrow=none;html=1;rounded=0;" edge="1" parent="1" source="tBD7vMvpTvzzFeklytoe-13" target="tBD7vMvpTvzzFeklytoe-38">
          <mxGeometry relative="1" as="geometry">
            <mxPoint x="543" y="190" as="sourcePoint" />
            <mxPoint x="537" y="210" as="targetPoint" />
          </mxGeometry>
        </mxCell>
      </root>
    </mxGraphModel>
  </diagram>
</mxfile>
